<?xml version="1.0" standalone="no"?>
<!DOCTYPE svg PUBLIC "-//W3C//DTD SVG 1.1//EN" "http://www.w3.org/Graphics/SVG/1.1/DTD/svg11.dtd" >
<svg xmlns="http://www.w3.org/2000/svg" xmlns:xlink="http://www.w3.org/1999/xlink" version="1.1">
<metadata></metadata>
<defs>
<font id="gotham_prolight" horiz-adv-x="1024" >
<font-face units-per-em="2048" ascent="1638" descent="-410" />
<missing-glyph horiz-adv-x="614" />
<glyph horiz-adv-x="0" />
<glyph unicode="&#xd;" horiz-adv-x="681" />
<glyph unicode=" "  horiz-adv-x="614" />
<glyph unicode="&#x09;" horiz-adv-x="614" />
<glyph unicode="&#xa0;" horiz-adv-x="614" />
<glyph unicode="!" horiz-adv-x="516" d="M190 0v174h136v-174h-136zM199 1290v144h118v-144l-30 -915h-58z" />
<glyph unicode="&#x22;" horiz-adv-x="839" d="M139 913l72 521h133v-11l-145 -510h-60zM508 913l72 521h133v-11l-146 -510h-59z" />
<glyph unicode="#" horiz-adv-x="1433" d="M100 383v96h265l84 484h-267v96h283l63 375h99l-64 -375h424l64 375h98l-64 -375h246v-96h-262l-84 -484h264v-96h-280l-66 -383h-98l65 383h-424l-65 -383h-98l65 383h-248zM463 479h424l84 484h-424z" />
<glyph unicode="$" horiz-adv-x="1294" d="M123 221l67 80q199 -186 422 -205v582q-231 51 -332.5 141t-101.5 246q0 154 122 259.5t308 109.5v118h99v-122q209 -16 395 -168l-68 -80q-152 133 -332 155v-575q233 -49 338 -141.5t105 -243.5q0 -160 -122 -264.5t-316 -112.5v-201h-99v203q-264 23 -485 219z M283 1069q0 -106 69.5 -173t259.5 -114v559q-147 -2 -238 -79.5t-91 -192.5zM702 92q152 4 245 83t93 198q0 111 -71.5 175t-266.5 109v-565z" />
<glyph unicode="%" horiz-adv-x="1687" d="M113 1083q0 150 89 258.5t228 108.5q137 0 225 -108.5t88 -258t-89 -258t-228 -108.5q-137 0 -225 107.5t-88 258.5zM219 1083q0 -119 61.5 -198.5t149.5 -79.5q90 0 148.5 80t58.5 198.5t-61.5 198.5t-149.5 80q-90 0 -148.5 -81t-58.5 -198zM262 0l1053 1434h110 l-1052 -1434h-111zM944 350q0 150 89 258.5t229 108.5q137 0 225 -108.5t88 -258t-89.5 -258t-228.5 -108.5q-137 0 -225 107.5t-88 258.5zM1051 350q0 -119 61.5 -198.5t149.5 -79.5q90 0 148 79.5t58 198.5t-61 199t-150 80q-90 0 -148 -81t-58 -198z" />
<glyph unicode="&#x26;" horiz-adv-x="1425" d="M100 381q0 283 371 420q-86 94 -123 168.5t-37 163.5q0 139 101.5 232t257.5 93q139 0 234 -91t95 -224q0 -250 -352 -371l377 -387q98 137 186 348l97 -39q-104 -236 -213 -381l264 -272l-84 -70l-248 256q-213 -248 -485 -247q-190 0 -315.5 112.5t-125.5 288.5z M207 381q0 -131 95.5 -220t240.5 -89q223 0 415 225l-423 438q-164 -57 -246 -149t-82 -205zM418 1133q0 -68 36 -131.5t130 -163.5q309 98 309 305q0 96 -65.5 160.5t-161.5 64.5q-109 0 -178.5 -67.5t-69.5 -167.5z" />
<glyph unicode="'" horiz-adv-x="471" d="M139 913l72 521h133v-11l-145 -510h-60z" />
<glyph unicode="(" horiz-adv-x="880" d="M145 587.5q0 274.5 146.5 498t421.5 378.5l43 -67q-504 -309 -504 -809t504 -809l-43 -68q-274 156 -421 379t-147 497.5z" />
<glyph unicode=")" horiz-adv-x="880" d="M125 -221q504 309 504 808.5t-504 809.5l43 67q274 -156 420.5 -379t146.5 -497.5t-146.5 -497.5t-420.5 -379z" />
<glyph unicode="*" horiz-adv-x="880" d="M154 1020l241 115l-241 114l45 76l217 -147l-19 260h86l-18 -260l217 147l45 -76l-242 -114l242 -115l-45 -76l-217 148l18 -261h-86l19 261l-217 -148z" />
<glyph unicode="+" horiz-adv-x="1310" d="M160 672v98h444v440h103v-440h444v-98h-444v-441h-103v441h-444z" />
<glyph unicode="," horiz-adv-x="471" d="M109 -168q115 57 114 150v18h-55v174h135v-151q0 -96 -39 -151.5t-131 -90.5z" />
<glyph unicode="-" horiz-adv-x="835" d="M143 551v115h549v-115h-549z" />
<glyph unicode="." horiz-adv-x="471" d="M168 0v174h135v-174h-135z" />
<glyph unicode="/" d="M-37 -262l967 1896h100l-967 -1896h-100z" />
<glyph unicode="0" horiz-adv-x="1454" d="M133 717q0 199 71.5 366.5t210 271t314.5 103.5q266 0 429 -216t163 -525q0 -199 -71.5 -367t-210 -271.5t-314.5 -103.5q-266 0 -429 216.5t-163 525.5zM244 717q0 -260 135 -452.5t350 -192.5t348 191.5t133 453.5t-135 453.5t-350 191.5t-348 -190.5t-133 -454.5z" />
<glyph unicode="1" horiz-adv-x="686" d="M61 1323l328 121h82v-1444h-104v1333l-277 -94z" />
<glyph unicode="2" horiz-adv-x="1208" d="M98 0v80l535 483q178 162 247.5 269.5t69.5 220.5q0 135 -95 221t-228 86q-131 0 -228.5 -65.5t-191.5 -200.5l-80 53q102 156 217 231.5t293 75.5q182 0 304 -113.5t122 -283.5q0 -141 -79 -258t-279 -299l-439 -398h811v-102h-979z" />
<glyph unicode="3" horiz-adv-x="1249" d="M111 233l82 68q180 -229 446 -229q150 0 252 90t102 231q0 147 -124 229.5t-322 82.5h-78l-27 59l494 569h-752v101h897v-76l-485 -555q96 -6 181 -32t161 -72t121 -124.5t45 -181.5q0 -182 -138.5 -300t-328.5 -118q-328 0 -526 258z" />
<glyph unicode="4" horiz-adv-x="1359" d="M98 430l820 1014h96v-1002h233v-92h-233v-350h-103v350h-776zM227 442h684v848z" />
<glyph unicode="5" horiz-adv-x="1239" d="M117 207l76 76q211 -211 430 -211q168 0 276.5 104.5t108.5 259.5q0 150 -110 245t-284 95q-158 0 -323 -90l-82 53l41 695h805v-103h-711l-35 -536q160 78 318 77q211 0 351 -121.5t140 -314.5q0 -203 -141.5 -332t-358.5 -129q-139 0 -270 64.5t-231 167.5z" />
<glyph unicode="6" horiz-adv-x="1314" d="M131 682q0 332 161 554t423 222q211 0 413 -166l-67 -82q-170 152 -354 152q-211 0 -340 -196.5t-129 -512.5v-35q156 266 448 267q201 0 347.5 -124t146.5 -315q0 -203 -144.5 -337t-357.5 -134q-221 0 -365 144q-94 94 -138 221t-44 342zM281 432q0 -154 115.5 -257 t289.5 -103q170 0 276.5 108.5t106.5 265.5q0 147 -109.5 246t-279.5 99t-284.5 -109t-114.5 -250z" />
<glyph unicode="7" horiz-adv-x="1202" d="M139 1331v103h951v-78l-654 -1356h-117l652 1331h-832z" />
<glyph unicode="8" horiz-adv-x="1290" d="M113 387q0 121 88 214t229 140q-268 109 -268 338q0 162 145.5 268.5t338 106.5t337.5 -106.5t145 -272.5q0 -225 -268 -334q141 -47 229.5 -140t88.5 -218q0 -176 -153 -289.5t-380 -113.5q-229 0 -380.5 113.5t-151.5 293.5zM223 379q0 -127 115 -215t307.5 -88t307 89 t114.5 218q0 133 -123 220t-299 87q-178 0 -300 -88t-122 -223zM272 1075q0 -129 108.5 -212t264.5 -83t264.5 83t108.5 216q0 121 -107.5 200t-265.5 79t-265.5 -80t-107.5 -203z" />
<glyph unicode="9" horiz-adv-x="1314" d="M135 977q0 203 141.5 342t362.5 139q219 0 365 -145q180 -180 180 -563q0 -336 -166 -555.5t-418 -219.5q-221 0 -432 179l68 82q182 -164 366 -164q209 0 342 193.5t133 496.5v49q-154 -276 -446 -276q-215 0 -355.5 126.5t-140.5 315.5zM246 977q0 -152 109.5 -250 t279.5 -98q176 0 287.5 111.5t111.5 256.5q0 154 -115.5 259.5t-291.5 105.5q-170 0 -275.5 -113.5t-105.5 -271.5z" />
<glyph unicode=":" horiz-adv-x="491" d="M178 0v174h135v-174h-135zM178 870v174h135v-174h-135z" />
<glyph unicode=";" horiz-adv-x="491" d="M119 -168q115 57 114 150v18h-55v174h135v-151q0 -96 -39 -151.5t-131 -90.5zM178 870v174h135v-174h-135z" />
<glyph unicode="&#x3c;" horiz-adv-x="1310" d="M150 680v82l950 493v-110l-826 -422l826 -426v-111z" />
<glyph unicode="=" horiz-adv-x="1310" d="M190 438v105h930v-105h-930zM190 899v105h930v-105h-930z" />
<glyph unicode="&#x3e;" horiz-adv-x="1310" d="M211 186v111l825 422l-825 426v110l950 -493v-82z" />
<glyph unicode="?" horiz-adv-x="1093" d="M70 1208q94 119 206.5 181.5t266.5 62.5q199 0 321.5 -115.5t122.5 -287.5q0 -180 -122 -288t-312 -130l-18 -256h-66l-27 332l11 10q203 4 314.5 92t111.5 240q0 129 -94.5 219t-245.5 90q-223 0 -396 -211zM434 0v174h135v-174h-135z" />
<glyph unicode="@" horiz-adv-x="2007" d="M109 561q0 369 261 633t636 264q373 0 632.5 -241.5t259.5 -569.5q0 -244 -112.5 -370.5t-259.5 -126.5q-106 0 -179 51t-100 139q-154 -190 -350 -190q-152 0 -257 102t-105 262q0 211 148 360.5t329 149.5q209 0 305 -182l29 153l98 -12l-76 -432q-18 -106 -18 -148 q0 -88 48 -134t136 -46q119 0 207 108.5t88 315.5q0 186 -105.5 357.5t-298 280t-419.5 108.5q-352 0 -590 -243t-238 -589q0 -348 238.5 -587.5t605.5 -239.5q274 0 512 139l31 -51q-252 -154 -543 -154q-389 0 -651 261t-262 632zM641 522q0 -129 74.5 -202.5t197.5 -73.5 q143 0 256 121.5t113 273.5q0 121 -77 203t-193 82q-143 0 -257 -118t-114 -286z" />
<glyph unicode="A" horiz-adv-x="1617" d="M90 0l668 1444h102l668 -1444h-117l-182 401h-846l-182 -401h-111zM428 498h756l-377 829z" />
<glyph unicode="B" horiz-adv-x="1478" d="M213 0v1434h592q211 0 338 -97.5t127 -259.5q0 -242 -244 -340q324 -84 324 -346q0 -178 -140.5 -284.5t-373.5 -106.5h-623zM319 98h521q184 0 292.5 80t108.5 217q0 133 -112.5 206t-323.5 73h-486v-576zM319 772h474q166 0 267 78t101 221q0 121 -94 192.5t-264 71.5 h-484v-563z" />
<glyph unicode="C" horiz-adv-x="1511" d="M150 717q0 307 204.5 524t511.5 217q176 0 300 -59.5t251 -175.5l-69 -72q-217 211 -484 211q-258 0 -431 -185.5t-173 -459.5q0 -272 175 -458.5t431 -186.5q150 0 264.5 55t229.5 168l72 -70q-125 -123 -258.5 -186.5t-311.5 -63.5q-305 0 -508.5 214t-203.5 528z" />
<glyph unicode="D" horiz-adv-x="1601" d="M213 0v1434h477q336 0 549 -204t213 -513q0 -307 -214 -512t-548 -205h-477zM319 98h371q293 0 472 176.5t179 442.5q0 262 -179 440t-472 178h-371v-1237z" />
<glyph unicode="E" horiz-adv-x="1372" d="M213 0v1434h1020v-99h-914v-563h822v-98h-822v-576h924v-98h-1030z" />
<glyph unicode="F" horiz-adv-x="1343" d="M213 0v1434h1010v-99h-904v-587h811v-99h-811v-649h-106z" />
<glyph unicode="G" horiz-adv-x="1605" d="M150 717q0 301 198.5 521t509.5 220q166 0 288 -47t236 -141l-69 -80q-197 172 -461 172q-256 0 -424 -188.5t-168 -456.5q0 -285 166 -466t448 -181q129 0 251 46t206 117v412h-479v98h582v-553q-106 -94 -253 -154.5t-311 -60.5q-330 0 -525 213t-195 529z" />
<glyph unicode="H" horiz-adv-x="1556" d="M213 0v1434h106v-664h918v664h106v-1434h-106v672h-918v-672h-106z" />
<glyph unicode="I" horiz-adv-x="561" d="M227 0v1434h107v-1434h-107z" />
<glyph unicode="J" horiz-adv-x="1124" d="M76 248l88 55q70 -117 150.5 -172t201.5 -55q137 0 224 100t87 283v975h107v-967q0 -242 -131 -373q-115 -114 -293 -114q-285 0 -434 268z" />
<glyph unicode="K" horiz-adv-x="1464" d="M213 0v1434h106v-942l914 942h145l-626 -633l653 -801h-139l-590 725l-357 -360v-365h-106z" />
<glyph unicode="L" horiz-adv-x="1267" d="M213 0v1434h106v-1336h842v-98h-948z" />
<glyph unicode="M" horiz-adv-x="1777" d="M213 0v1434h100l576 -848l575 848h101v-1434h-107v1245l-567 -825h-8l-568 825v-1245h-102z" />
<glyph unicode="N" horiz-adv-x="1617" d="M213 0v1434h100l990 -1248v1248h102v-1434h-80l-1010 1274v-1274h-102z" />
<glyph unicode="O" horiz-adv-x="1740" d="M150 717q0 303 202.5 522t520 219t518 -218t200.5 -523q0 -303 -202.5 -522.5t-520 -219.5t-518 218.5t-200.5 523.5zM260 717q0 -268 175 -456.5t437.5 -188.5t435.5 186t173 459q0 268 -175.5 456.5t-437.5 188.5t-435 -186.5t-173 -458.5z" />
<glyph unicode="P" horiz-adv-x="1368" d="M213 0v1434h520q240 0 386.5 -118t146.5 -325q0 -217 -161 -336.5t-398 -119.5h-388v-535h-106zM319 633h394q201 0 323.5 97t122.5 259q0 166 -117.5 256t-316.5 90h-406v-702z" />
<glyph unicode="Q" horiz-adv-x="1740" d="M150 717q0 303 202.5 522t520 219t518 -218t200.5 -523q0 -295 -188 -506l205 -172l-76 -82l-201 182q-193 -164 -463 -164q-317 0 -517.5 218.5t-200.5 523.5zM260 717q0 -268 175 -456.5t437 -188.5q219 0 381 135l-278 237l76 84l274 -249q156 182 156 438 q0 268 -175.5 456.5t-437.5 188.5t-435 -186.5t-173 -458.5z" />
<glyph unicode="R" horiz-adv-x="1480" d="M213 0v1434h602q262 0 404 -142q108 -108 108 -267q0 -177 -114.5 -281.5t-305.5 -131.5l473 -612h-135l-457 594h-469v-594h-106zM319 690h484q184 0 301 89t117 243q0 145 -108.5 229t-303.5 84h-490v-645z" />
<glyph unicode="S" horiz-adv-x="1310" d="M121 209l69 80q121 -113 240 -163t275 -50q160 0 261 81t101 208q0 119 -85 188.5t-320 116.5q-258 53 -371 147t-113 260q0 160 131 268.5t330 108.5q152 0 265.5 -42t225.5 -132l-67 -84q-186 162 -428 162q-156 0 -253 -79t-97 -196q0 -121 87 -192.5t330 -120.5 q248 -51 360 -145.5t112 -253.5q0 -172 -133.5 -281.5t-342.5 -109.5q-322 0 -577 229z" />
<glyph unicode="T" horiz-adv-x="1327" d="M111 1335v99h1106v-99h-500v-1335h-107v1335h-499z" />
<glyph unicode="U" horiz-adv-x="1556" d="M190 596v838h107v-828q0 -252 129 -392t356 -140q223 0 350.5 134t127.5 388v838h106v-826q0 -301 -160 -466t-428 -165q-264 0 -426 162t-162 457z" />
<glyph unicode="V" horiz-adv-x="1536" d="M90 1434h119l561 -1319l563 1319h113l-631 -1444h-94z" />
<glyph unicode="W" horiz-adv-x="2256" d="M102 1434h119l451 -1276l420 1280h82l419 -1280l451 1276h110l-520 -1444h-86l-420 1245l-419 -1245h-86z" />
<glyph unicode="X" horiz-adv-x="1478" d="M104 0l572 731l-551 703h127l489 -631l488 631h125l-549 -701l569 -733h-127l-510 662l-508 -662h-125z" />
<glyph unicode="Y" horiz-adv-x="1466" d="M66 1434h133l536 -770l539 770h127l-615 -865v-569h-106v567z" />
<glyph unicode="Z" horiz-adv-x="1409" d="M139 0v59l981 1278h-946v97h1098v-60l-981 -1278h981v-96h-1133z" />
<glyph unicode="[" horiz-adv-x="880" d="M201 -266v1700h559v-78h-465v-1544h465v-78h-559z" />
<glyph unicode="\" d="M-6 1634h100l967 -1896h-100z" />
<glyph unicode="]" horiz-adv-x="880" d="M121 -188h465v1544h-465v78h559v-1700h-559v78z" />
<glyph unicode="^" d="M143 1010l324 430h90l324 -430h-109l-262 342l-262 -342h-105z" />
<glyph unicode="_" horiz-adv-x="1228" d="M-4 -238h1237v-90h-1237v90z" />
<glyph unicode="`" d="M322 1430l124 61l181 -272h-86z" />
<glyph unicode="a" horiz-adv-x="1175" d="M104 307q0 160 125 250t332 90q176 0 346 -45v45q0 156 -90 238t-254 82t-327 -84l-37 88q195 90 370 90q215 0 330 -115q106 -106 107 -295v-651h-99v174q-141 -199 -399 -199q-160 0 -282 88.5t-122 243.5zM211 309q0 -109 89 -174t214 -65q164 0 279.5 91t115.5 230 v119q-184 47 -354 47q-164 0 -254 -66.5t-90 -181.5z" />
<glyph unicode="b" horiz-adv-x="1351" d="M190 0v1495h101v-684q170 258 430 258q201 0 354.5 -150.5t153.5 -396.5q0 -244 -153.5 -395.5t-354.5 -151.5q-266 0 -430 250v-225h-101zM285 520q0 -195 128 -321.5t298 -126.5q176 0 292.5 121.5t116.5 328.5q0 201 -119.5 326t-289.5 125t-298 -128t-128 -325z" />
<glyph unicode="c" horiz-adv-x="1169" d="M119 522q0 225 154.5 386t377.5 161q244 0 416 -195l-70 -71q-168 172 -348 172q-174 0 -298 -133t-124 -320q0 -188 125 -320t305 -132q186 0 347 178l73 -66q-182 -207 -426 -207q-225 0 -378.5 160t-153.5 387z" />
<glyph unicode="d" horiz-adv-x="1351" d="M123 522q0 244 153.5 395.5t354.5 151.5q266 0 430 -250v676h100v-1495h-100v233q-170 -258 -430 -258q-201 0 -354.5 150.5t-153.5 396.5zM231 522q0 -201 120 -325.5t290 -124.5t298 128t128 324q0 195 -128 322t-298 127q-176 0 -293 -122t-117 -329z" />
<glyph unicode="e" horiz-adv-x="1196" d="M119 524q0 229 142 387t353 158q215 0 347.5 -155.5t132.5 -391.5q0 -25 -2 -41h-867q14 -188 132 -299.5t278 -111.5q205 0 358 163l70 -61q-182 -197 -432 -197q-211 0 -361.5 154t-150.5 395zM225 571h760q-12 172 -108.5 289t-266.5 117q-154 0 -262.5 -116 t-122.5 -290z" />
<glyph unicode="f" horiz-adv-x="741" d="M100 952v92h152v103q0 180 92 272q82 82 219 82q84 0 156 -24v-95q-86 27 -156 27q-211 0 -211 -264v-101h365v-92h-365v-952h-100v952h-152z" />
<glyph unicode="g" horiz-adv-x="1351" d="M123 573q0 217 151.5 356.5t350.5 139.5q272 0 436 -233v208h100v-882q0 -221 -133 -355q-139 -139 -379 -139q-264 0 -479 160l59 82q190 -147 422 -148q186 0 298 104.5t112 301.5v151q-167 -241 -434 -241h-2q-199 0 -350.5 138t-151.5 357zM231 573 q0 -172 119 -285.5t285 -113.5q170 0 301 113.5t131 288t-130 286t-302 111.5q-170 0 -287 -109.5t-117 -290.5z" />
<glyph unicode="h" horiz-adv-x="1255" d="M190 0v1495h101v-645q125 219 377 219q195 0 306 -120t111 -310v-639h-100v621q0 164 -88 260t-243.5 96t-259 -105.5t-103.5 -267.5v-604h-101z" />
<glyph unicode="i" horiz-adv-x="509" d="M193 1317v137h124v-137h-124zM205 0v1044h100v-1044h-100z" />
<glyph unicode="j" horiz-adv-x="509" d="M-2 -238q37 -6 82 -6q57 0 91 37t34 109v1142h100v-1136q0 -119 -59.5 -180.5t-163.5 -61.5q-43 0 -84 8v88zM193 1317v137h124v-137h-124z" />
<glyph unicode="k" horiz-adv-x="1146" d="M190 0v1495h101v-1120l647 669h133l-457 -462l471 -582h-127l-413 510l-254 -256v-254h-101z" />
<glyph unicode="l" horiz-adv-x="509" d="M205 0v1495h100v-1495h-100z" />
<glyph unicode="m" horiz-adv-x="1947" d="M190 0v1044h101v-186q61 98 141 154.5t207 56.5q246 0 352 -225q131 225 377 225q184 0 292.5 -119t108.5 -317v-633h-100v621q0 168 -82 262t-227 94q-137 0 -233.5 -100.5t-96.5 -268.5v-608h-100v627q0 162 -83 256t-222.5 94t-236.5 -108.5t-97 -266.5v-602h-101z " />
<glyph unicode="n" horiz-adv-x="1255" d="M190 0v1044h101v-194q125 219 377 219q195 0 306 -120t111 -310v-639h-100v621q0 164 -88 260t-243.5 96t-259 -105.5t-103.5 -267.5v-604h-101z" />
<glyph unicode="o" horiz-adv-x="1310" d="M119 522q0 223 154.5 385t384 162t382 -160.5t152.5 -386.5q0 -223 -154.5 -385t-384 -162t-382 161t-152.5 386zM227 522.5q0 -188.5 125 -320.5t305 -132q174 0 300 133t126 319q0 188 -126 320.5t-304 132.5q-176 0 -301 -132t-125 -320.5z" />
<glyph unicode="p" horiz-adv-x="1351" d="M190 -328v1372h101v-233q170 258 430 258q201 0 354.5 -150.5t153.5 -396.5q0 -244 -153.5 -395.5t-354.5 -151.5q-266 0 -430 250v-553h-101zM285 520q0 -195 128 -321.5t298 -126.5q176 0 292.5 121.5t116.5 328.5q0 201 -119.5 326t-289.5 125t-298 -128t-128 -325z " />
<glyph unicode="q" horiz-adv-x="1351" d="M123 522q0 244 153.5 395.5t354.5 151.5q266 0 430 -250v225h100v-1372h-100v561q-170 -258 -430 -258q-201 0 -354.5 150.5t-153.5 396.5zM231 522q0 -201 120 -325.5t290 -124.5t298 128t128 324q0 195 -128 322t-298 127q-176 0 -293 -122t-117 -329z" />
<glyph unicode="r" horiz-adv-x="819" d="M190 0v1044h101v-296q63 143 187 231q116 82 257 82h19v-111h-11q-190 0 -321 -139t-131 -383v-428h-101z" />
<glyph unicode="s" horiz-adv-x="1017" d="M100 131l60 80q178 -137 375 -137q109 0 180 55t71 147q0 84 -70.5 127t-205.5 82q-72 20 -104.5 30.5t-92 37.5t-87 53.5t-51 70.5t-23.5 99q0 127 96 208t248 81q199 0 370 -115l-53 -84q-158 104 -321 105q-106 0 -172 -52.5t-66 -134.5q0 -33 17.5 -61.5t41 -47 t67.5 -38t75.5 -29.5t89.5 -26q78 -23 127 -41.5t105.5 -53t84 -85t27.5 -117.5q0 -137 -103.5 -221t-257.5 -84q-113 0 -228.5 41.5t-199.5 109.5z" />
<glyph unicode="t" horiz-adv-x="819" d="M94 952v92h152v334h100v-334h367v-92h-367v-673q0 -203 209 -203q72 0 154 37v-95q-80 -36 -170 -36q-129 0 -211 72.5t-82 213.5v684h-152z" />
<glyph unicode="u" horiz-adv-x="1255" d="M170 406v638h100v-620q0 -164 88 -260t244 -96t259.5 105.5t103.5 266.5v604h100v-1044h-100v195q-125 -220 -377 -220q-195 0 -306.5 120t-111.5 311z" />
<glyph unicode="v" horiz-adv-x="1191" d="M84 1044h117l395 -931l399 931h113l-469 -1052h-86z" />
<glyph unicode="w" horiz-adv-x="1763" d="M100 1044h113l315 -917l316 922h80l315 -922l315 917h109l-383 -1052h-86l-311 895l-314 -895h-86z" />
<glyph unicode="x" horiz-adv-x="1167" d="M92 0l428 532l-411 512h124l353 -442l352 442h121l-412 -509l428 -535h-125l-368 465l-369 -465h-121z" />
<glyph unicode="y" horiz-adv-x="1204" d="M80 1044h117l434 -933l377 933h110l-452 -1081q-68 -160 -151 -228.5t-198 -68.5q-104 0 -206 45l34 88q80 -39 179 -39q82 0 141 55.5t117 190.5z" />
<glyph unicode="z" horiz-adv-x="1134" d="M119 0v57l753 897h-725v90h875v-57l-754 -897h754v-90h-903z" />
<glyph unicode="{" horiz-adv-x="983" d="M121 549v78h53q137 0 191.5 65.5t54.5 194.5v162q0 86 16.5 146t61.5 114.5t132 92.5t222 62l14 -65q-119 -31 -186.5 -60.5t-103 -74.5t-46 -93.5t-10.5 -134.5v-153q0 -129 -54 -197t-159 -98q111 -37 162 -101.5t51 -193.5v-154q0 -86 10.5 -134t46 -93t103.5 -75 t186 -60l-14 -66q-135 25 -222 63t-132 92t-61.5 114.5t-16.5 146.5v162q0 129 -54.5 194.5t-191.5 65.5h-53z" />
<glyph unicode="|" horiz-adv-x="585" d="M248 -262v1896h90v-1896h-90z" />
<glyph unicode="}" horiz-adv-x="983" d="M117 -223q119 31 186.5 60.5t103 74.5t46 93t10.5 134v154q0 129 54 196.5t159 98.5q-111 37 -162 101.5t-51 193.5v153q0 86 -10.5 134.5t-46 93.5t-103 74.5t-186.5 60.5l14 65q135 -25 222 -62.5t132 -92t61.5 -114.5t16.5 -146v-162q0 -129 54.5 -194.5t191.5 -65.5 h53v-78h-53q-137 0 -191.5 -65.5t-54.5 -194.5v-162q0 -86 -16.5 -146.5t-61.5 -114.5t-132 -92t-222 -63z" />
<glyph unicode="~" horiz-adv-x="942" d="M168 514q29 106 68.5 148.5t103.5 42.5q41 0 135 -42t127 -42q37 0 58.5 21.5t44.5 80.5l69 -18q-29 -106 -68.5 -148.5t-103.5 -42.5q-41 0 -135 42t-127 42q-37 0 -58 -21.5t-44 -80.5z" />
<glyph unicode="&#xa2;" horiz-adv-x="1189" d="M127 727q0 221 155.5 384t376.5 163h31l33 172h102l-37 -186q152 -37 289 -179l-71 -73q-125 129 -242 157l-170 -884q33 -6 72 -7q195 0 350 175l69 -62q-182 -207 -426 -207q-41 0 -79 6l-39 -198h-103l45 223q-160 55 -258 197.5t-98 318.5zM236 727q0 -143 75.5 -258 t196.5 -164l168 875h-19q-178 0 -299.5 -131t-121.5 -322z" />
<glyph unicode="&#xa3;" horiz-adv-x="1318" d="M143 0v51l176 41v533h-176v98h176v242q0 238 134 370q119 119 307 119q264 0 430 -217l-82 -63q-72 90 -151.5 137t-198.5 47q-143 0 -232 -88q-102 -102 -102 -303v-244h610v-98h-610v-529h766v-96h-1047z" />
<glyph unicode="&#xa5;" horiz-adv-x="1404" d="M66 1434h129l510 -764l512 764h122l-551 -793h402v-92h-436v-201h436v-92h-436v-256h-103v256h-436v92h436v201h-436v92h399z" />
<glyph unicode="&#xa8;" d="M274 1219v163h142v-163h-142zM608 1219v163h142v-163h-142z" />
<glyph unicode="&#xa9;" horiz-adv-x="1699" d="M109 717q0 305 217 523t526 218t524 -217t215 -524q0 -305 -217 -523.5t-526 -218.5t-524 217.5t-215 524.5zM170 713q0 -283 194.5 -481.5t483.5 -198.5t485.5 200.5t196.5 487.5q0 283 -194.5 481.5t-483.5 198.5t-485.5 -201t-196.5 -487zM485 729q0 158 108.5 272.5 t266.5 114.5t289 -125l-62 -63q-111 106 -229 106q-121 0 -202 -89t-81 -218q0 -125 83 -215t202 -90q123 0 236 106l57 -57q-135 -131 -295 -131q-158 0 -265.5 113.5t-107.5 275.5z" />
<glyph unicode="&#xab;" horiz-adv-x="1054" d="M104 514v16l328 428l76 -49l-281 -385l281 -389l-76 -49zM522 514v16l328 428l76 -49l-281 -385l281 -389l-76 -49z" />
<glyph unicode="&#xad;" horiz-adv-x="835" d="M143 551v115h549v-115h-549z" />
<glyph unicode="&#xae;" horiz-adv-x="1699" d="M109 717q0 305 217 523t526 218t524 -217t215 -524q0 -305 -217 -523.5t-526 -218.5t-524 217.5t-215 524.5zM170 713q0 -283 194.5 -481.5t483.5 -198.5t485.5 200.5t196.5 487.5q0 283 -194.5 481.5t-483.5 198.5t-485.5 -201t-196.5 -487zM565 362v750h336 q143 0 219 -76q57 -57 58 -143q0 -88 -55.5 -142.5t-149.5 -72.5l250 -316h-115l-242 302h-213v-302h-88zM653 745h234q88 0 143 38t55 110q0 61 -50 98t-138 37h-244v-283z" />
<glyph unicode="&#xb4;" d="M397 1219l181 272l124 -61l-219 -211h-86z" />
<glyph unicode="&#xb8;" d="M332 -250l184 270h88l-160 -323z" />
<glyph unicode="&#xbb;" horiz-adv-x="1054" d="M129 135l281 385l-281 389l76 49l327 -428v-16l-327 -428zM547 135l280 385l-280 389l76 49l327 -428v-16l-327 -428z" />
<glyph unicode="&#x2c6;" d="M266 1219l205 249h82l205 -249h-96l-152 139l-152 -139h-92z" />
<glyph unicode="&#x2da;" d="M311 1409q0 78 60.5 134t140.5 56t140.5 -57t60.5 -137q0 -78 -60.5 -134.5t-140.5 -56.5t-140.5 57.5t-60.5 137.5zM385 1405q0 -51 38 -88t89 -37t89 38t38 91q0 51 -38 88t-89 37q-53 0 -90 -38t-37 -91z" />
<glyph unicode="&#x2dc;" d="M209 1219q29 106 68.5 148t103.5 42q39 0 134 -42t128 -42q37 0 58.5 21.5t43.5 80.5l70 -18q-29 -106 -68.5 -148t-103.5 -42q-39 0 -134 42t-128 42q-37 0 -58 -22t-44 -81z" />
<glyph unicode="&#x401;" horiz-adv-x="1372" d="M213 0v1434h1020v-99h-914v-563h822v-98h-822v-576h924v-98h-1030zM489 1567v164h142v-164h-142zM823 1567v164h142v-164h-142z" />
<glyph unicode="&#x402;" horiz-adv-x="1753" d="M111 1335v99h1106v-99h-562v-573q229 182 496 182q213 0 344 -127t131 -350q0 -227 -131 -359.5t-340 -132.5q-104 0 -207 45l35 89q76 -37 178 -37q137 0 248 96t111 297q0 170 -100.5 276.5t-262.5 106.5q-152 0 -268.5 -48t-233.5 -153v-647h-106v1335h-438z" />
<glyph unicode="&#x403;" horiz-adv-x="1208" d="M213 0v1434h895v-99h-789v-1335h-106zM553 1567l180 272l125 -61l-219 -211h-86z" />
<glyph unicode="&#x404;" horiz-adv-x="1511" d="M150 712.5q0 311.5 204.5 528.5t511.5 217q176 0 299 -58.5t250 -174.5l-67 -74q-217 211 -484 211q-244 0 -414.5 -168t-187.5 -422h772v-98h-774q16 -258 188.5 -430t417.5 -172q150 0 264.5 55t229.5 168l72 -74q-242 -246 -570 -246q-305 0 -508.5 213t-203.5 524.5z " />
<glyph unicode="&#x405;" horiz-adv-x="1310" d="M121 209l69 80q121 -113 240 -163t275 -50q160 0 261 81t101 208q0 119 -85 188.5t-320 116.5q-258 53 -371 147t-113 260q0 160 131 268.5t330 108.5q152 0 265.5 -42t225.5 -132l-67 -84q-186 162 -428 162q-156 0 -253 -79t-97 -196q0 -121 87 -192.5t330 -120.5 q248 -51 360 -145.5t112 -253.5q0 -172 -133.5 -281.5t-342.5 -109.5q-322 0 -577 229z" />
<glyph unicode="&#x406;" horiz-adv-x="561" d="M227 0v1434h107v-1434h-107z" />
<glyph unicode="&#x407;" horiz-adv-x="561" d="M43 1567v164h141v-164h-141zM227 0v1434h107v-1434h-107zM377 1567v164h141v-164h-141z" />
<glyph unicode="&#x408;" horiz-adv-x="1124" d="M76 248l88 55q70 -117 150.5 -172t201.5 -55q137 0 224 100t87 283v975h107v-967q0 -242 -131 -373q-115 -114 -293 -114q-285 0 -434 268z" />
<glyph unicode="&#x409;" horiz-adv-x="2412" d="M0 20l33 89q49 -25 137 -25q29 0 52.5 6t57 31.5t60.5 68.5t55.5 124t47 191.5t30.5 277.5t12 376v275h879v-576h424q223 0 372.5 -102.5t149.5 -309.5q0 -205 -140 -325.5t-372 -120.5h-541v1335h-669v-180q0 -301 -24.5 -519t-61.5 -342t-95.5 -195.5t-111.5 -92 t-123 -20.5q-90 0 -172 34zM1364 98h416q199 0 309.5 87t110.5 257q0 156 -114 237t-319 81h-403v-662z" />
<glyph unicode="&#x40a;" horiz-adv-x="2392" d="M213 0v1434h106v-617h918v617h106v-617h445q219 0 360.5 -98t141.5 -293q0 -193 -132.5 -309.5t-359.5 -116.5h-561v719h-918v-719h-106zM1343 98h437q195 0 297 83t102 241q0 143 -105.5 220t-306.5 77h-424v-621z" />
<glyph unicode="&#x40b;" horiz-adv-x="1796" d="M111 1335v99h1106v-99h-562v-604q229 182 496 182q215 0 345 -106.5t130 -304.5v-502h-106v512q0 137 -100.5 221t-262.5 84q-152 0 -268.5 -48t-233.5 -153v-616h-106v1335h-438z" />
<glyph unicode="&#x40c;" horiz-adv-x="1464" d="M213 0v1434h106v-942l914 942h145l-626 -633l653 -801h-139l-590 725l-357 -360v-365h-106zM621 1567l180 272l125 -61l-219 -211h-86z" />
<glyph unicode="&#x40e;" horiz-adv-x="1488" d="M90 1434h125l576 -998l491 998h117l-570 -1143q-157 -316 -415 -316q-123 0 -230 50l41 92q84 -41 189 -41q199 0 323 250zM514 1798l84 19q39 -150 192.5 -150t192.5 150l84 -19q-18 -102 -94 -168.5t-182.5 -66.5t-182.5 66.5t-94 168.5z" />
<glyph unicode="&#x40f;" horiz-adv-x="1536" d="M213 0v1434h106v-1336h898v1336h106v-1434h-489v-328h-111v328h-510z" />
<glyph unicode="&#x410;" horiz-adv-x="1617" d="M90 0l668 1444h102l668 -1444h-117l-182 401h-846l-182 -401h-111zM428 498h756l-377 829z" />
<glyph unicode="&#x411;" horiz-adv-x="1449" d="M213 0v1434h999v-99h-893v-508h484q238 0 378 -98t140 -303t-132 -315.5t-370 -110.5h-606zM319 98h480q412 0 411 328q0 150 -109.5 226.5t-312.5 76.5h-469v-631z" />
<glyph unicode="&#x412;" horiz-adv-x="1478" d="M213 0v1434h592q211 0 338 -97.5t127 -259.5q0 -242 -244 -340q324 -84 324 -346q0 -178 -140.5 -284.5t-373.5 -106.5h-623zM319 98h521q184 0 292.5 80t108.5 217q0 133 -112.5 206t-323.5 73h-486v-576zM319 772h474q166 0 267 78t101 221q0 121 -94 192.5t-264 71.5 h-484v-563z" />
<glyph unicode="&#x413;" horiz-adv-x="1208" d="M213 0v1434h895v-99h-789v-1335h-106z" />
<glyph unicode="&#x414;" horiz-adv-x="1538" d="M20 98h154q111 154 170 425.5t59 606.5v304h879v-1336h195l-21 -426h-90v328h-1235l-20 -328h-91v426zM297 98h879v1237h-668v-282q0 -291 -56.5 -551.5t-154.5 -403.5z" />
<glyph unicode="&#x415;" horiz-adv-x="1372" d="M213 0v1434h1020v-99h-914v-563h822v-98h-822v-576h924v-98h-1030z" />
<glyph unicode="&#x416;" horiz-adv-x="2195" d="M47 0l604 817l-563 617h135l821 -914v914h107v-914l821 914h135l-563 -617l604 -817h-133l-545 737l-319 -350v-387h-107v387l-321 350l-543 -737h-133z" />
<glyph unicode="&#x417;" horiz-adv-x="1280" d="M82 205l70 80q121 -111 242.5 -162t275.5 -51q160 0 265 85t105 222q0 139 -111.5 218t-312.5 79h-155v94h157q168 0 275.5 81t107.5 222q0 125 -100 206t-256 81q-236 0 -434 -162l-64 82q219 176 502 176q205 0 334 -107.5t129 -275.5q0 -248 -272 -340 q141 -41 226 -130t85 -226q0 -168 -137 -285t-348 -117q-328 0 -584 230z" />
<glyph unicode="&#x418;" horiz-adv-x="1568" d="M213 0v1434h106v-1280l932 1280h105v-1434h-107v1280l-930 -1280h-106z" />
<glyph unicode="&#x419;" horiz-adv-x="1568" d="M213 0v1434h106v-1280l932 1280h105v-1434h-107v1280l-930 -1280h-106zM510 1788l84 18q39 -150 192.5 -149.5t192.5 149.5l84 -18q-18 -102 -94 -169t-182.5 -67t-182.5 67t-94 169z" />
<glyph unicode="&#x41a;" horiz-adv-x="1464" d="M213 0v1434h106v-942l914 942h145l-626 -633l653 -801h-139l-590 725l-357 -360v-365h-106z" />
<glyph unicode="&#x41b;" horiz-adv-x="1576" d="M0 20l33 89q49 -25 137 -25q29 0 52.5 6t57 31.5t60.5 68.5t55.5 124t47 191.5t30.5 277.5t12 376v275h879v-1434h-107v1335h-669v-180q0 -301 -24.5 -519t-61.5 -342t-95.5 -195.5t-111.5 -92t-123 -20.5q-90 0 -172 34z" />
<glyph unicode="&#x41c;" horiz-adv-x="1777" d="M213 0v1434h100l576 -848l575 848h101v-1434h-107v1245l-567 -825h-8l-568 825v-1245h-102z" />
<glyph unicode="&#x41d;" horiz-adv-x="1556" d="M213 0v1434h106v-664h918v664h106v-1434h-106v672h-918v-672h-106z" />
<glyph unicode="&#x41e;" horiz-adv-x="1740" d="M150 717q0 303 202.5 522t520 219t518 -218t200.5 -523q0 -303 -202.5 -522.5t-520 -219.5t-518 218.5t-200.5 523.5zM260 717q0 -268 175 -456.5t437.5 -188.5t435.5 186t173 459q0 268 -175.5 456.5t-437.5 188.5t-435 -186.5t-173 -458.5z" />
<glyph unicode="&#x41f;" horiz-adv-x="1536" d="M213 0v1434h1110v-1434h-106v1335h-898v-1335h-106z" />
<glyph unicode="&#x420;" horiz-adv-x="1368" d="M213 0v1434h520q240 0 386.5 -118t146.5 -325q0 -217 -161 -336.5t-398 -119.5h-388v-535h-106zM319 633h394q201 0 323.5 97t122.5 259q0 166 -117.5 256t-316.5 90h-406v-702z" />
<glyph unicode="&#x421;" horiz-adv-x="1511" d="M150 717q0 307 204.5 524t511.5 217q176 0 300 -59.5t251 -175.5l-69 -72q-217 211 -484 211q-258 0 -431 -185.5t-173 -459.5q0 -272 175 -458.5t431 -186.5q150 0 264.5 55t229.5 168l72 -70q-125 -123 -258.5 -186.5t-311.5 -63.5q-305 0 -508.5 214t-203.5 528z" />
<glyph unicode="&#x422;" horiz-adv-x="1327" d="M111 1335v99h1106v-99h-500v-1335h-107v1335h-499z" />
<glyph unicode="&#x423;" horiz-adv-x="1488" d="M90 1434h125l576 -998l491 998h117l-570 -1143q-157 -316 -415 -316q-123 0 -230 50l41 92q84 -41 189 -41q199 0 323 250z" />
<glyph unicode="&#x424;" horiz-adv-x="1765" d="M102 719q0 262 177.5 438t482.5 176h67v146h107v-146h68q305 0 482 -176t177 -438t-177 -437.5t-482 -175.5h-68v-159h-107v159h-67q-305 0 -482.5 175.5t-177.5 437.5zM213 719q0 -229 144.5 -370.5t404.5 -145.5h67v1034h-67q-260 -4 -404.5 -145.5t-144.5 -372.5z M936 203h68q260 4 404 145t144 371q0 231 -144 372.5t-404 145.5h-68v-1034z" />
<glyph unicode="&#x425;" horiz-adv-x="1478" d="M104 0l572 731l-551 703h127l489 -631l488 631h125l-549 -701l569 -733h-127l-510 662l-508 -662h-125z" />
<glyph unicode="&#x426;" horiz-adv-x="1579" d="M213 0v1434h106v-1336h898v1336h106v-1336h195l-21 -426h-90v328h-1194z" />
<glyph unicode="&#x427;" horiz-adv-x="1413" d="M164 901v533h106v-543q0 -139 91.5 -222t250.5 -83q215 0 482 153v695h106v-1434h-106v639q-98 -53 -233.5 -101.5t-242.5 -48.5q-211 0 -332.5 105.5t-121.5 306.5z" />
<glyph unicode="&#x428;" horiz-adv-x="2252" d="M213 0v1434h106v-1336h754v1336h107v-1336h753v1336h107v-1434h-1827z" />
<glyph unicode="&#x429;" horiz-adv-x="2295" d="M213 0v1434h106v-1336h754v1336h107v-1336h753v1336h107v-1336h194l-20 -426h-90v328h-1911z" />
<glyph unicode="&#x42a;" horiz-adv-x="1646" d="M102 1335v99h496v-576h424q223 0 372.5 -102.5t149.5 -309.5q0 -205 -140 -325.5t-372 -120.5h-540v1335h-390zM598 98h416q199 0 309.5 87t110.5 257q0 156 -114 237t-319 81h-403v-662z" />
<glyph unicode="&#x42b;" horiz-adv-x="1781" d="M213 0v1434h106v-576h424q223 0 373 -102.5t150 -309.5q0 -205 -140.5 -325.5t-371.5 -120.5h-541zM319 98h416q199 0 309.5 87t110.5 257q0 156 -113.5 237t-318.5 81h-404v-662zM1462 0v1434h107v-1434h-107z" />
<glyph unicode="&#x42c;" horiz-adv-x="1368" d="M213 0v1434h106v-576h424q223 0 373 -102.5t150 -309.5q0 -205 -140.5 -325.5t-371.5 -120.5h-541zM319 98h416q199 0 309.5 87t110.5 257q0 156 -113.5 237t-318.5 81h-404v-662z" />
<glyph unicode="&#x42d;" horiz-adv-x="1511" d="M80 221l72 74q115 -113 229.5 -168t263.5 -55q246 0 417 172t187 430h-772v98h772q-18 254 -188 422t-414 168q-266 0 -483 -211l-68 74q127 117 250 175t299 58q307 0 512 -217t205 -528.5t-204 -524.5t-509 -213q-328 0 -569 246z" />
<glyph unicode="&#x42e;" horiz-adv-x="2125" d="M213 0v1434h106v-664h322q16 297 201.5 492.5t468.5 195.5q295 0 480 -211t185 -528.5t-187 -530.5t-482 -213q-285 0 -468.5 198t-197.5 499h-322v-672h-106zM752 717q0 -274 158.5 -459.5t400.5 -185.5q244 0 399.5 183t155.5 462q0 274 -159 459.5t-400 185.5 q-244 0 -399.5 -183.5t-155.5 -461.5z" />
<glyph unicode="&#x42f;" horiz-adv-x="1480" d="M98 0l457 592q-186 25 -294.5 135.5t-108.5 288.5q0 180 139 299t373 119h602v-1434h-107v573h-485l-441 -573h-135zM258 1008q0 -154 118 -246t300 -92h483v665h-489q-193 0 -302.5 -89t-109.5 -238z" />
<glyph unicode="&#x430;" horiz-adv-x="1175" d="M104 307q0 160 125 250t332 90q176 0 346 -45v45q0 156 -90 238t-254 82t-327 -84l-37 88q195 90 370 90q215 0 330 -115q106 -106 107 -295v-651h-99v174q-141 -199 -399 -199q-172 0 -288 87.5t-116 244.5zM213 309q0 -113 82 -176t219 -63q164 0 279.5 91t115.5 230 v119q-184 47 -354 47q-164 0 -253 -66.5t-89 -181.5z" />
<glyph unicode="&#x431;" horiz-adv-x="1314" d="M143 549q0 104 3.5 173t14.5 157t35.5 148t64.5 119.5t104.5 99.5t150.5 63l594 149l29 -90l-574 -151q-166 -43 -236.5 -136.5t-86.5 -277.5q147 246 452 246q207 0 354.5 -158t147.5 -375q0 -221 -151.5 -381t-376.5 -160q-229 0 -377 158t-148 416zM252 512 q0 -184 122 -313t298 -129q178 0 296.5 129t118.5 313t-121.5 313t-297.5 129q-178 0 -297 -129t-119 -313z" />
<glyph unicode="&#x432;" horiz-adv-x="1187" d="M190 0v1044h478q154 0 246 -70.5t92 -189.5q0 -166 -177 -239q104 -27 170 -92.5t66 -167.5q0 -129 -102.5 -207t-272.5 -78h-500zM291 90h387q131 0 207 56.5t76 152.5q0 92 -79 143.5t-229 51.5h-362v-404zM291 578h362q113 0 181.5 52t68.5 148q0 80 -63.5 128 t-180.5 48h-368v-376z" />
<glyph unicode="&#x433;" horiz-adv-x="942" d="M190 0v1044h691v-90h-590v-954h-101z" />
<glyph unicode="&#x434;" horiz-adv-x="1249" d="M29 90h137q154 252 153 733v221h701v-954h168l-21 -385h-82v295h-952l-20 -295h-84v385zM276 90h644v864h-504v-188q0 -205 -38.5 -387.5t-101.5 -288.5z" />
<glyph unicode="&#x435;" horiz-adv-x="1196" d="M119 524q0 229 142 387t353 158q215 0 347.5 -155.5t132.5 -391.5q0 -25 -2 -41h-867q14 -188 132 -299.5t278 -111.5q205 0 358 163l70 -61q-182 -197 -432 -197q-211 0 -361.5 154t-150.5 395zM225 571h760q-12 172 -108.5 289t-266.5 117q-154 0 -262.5 -116 t-122.5 -290z" />
<glyph unicode="&#x436;" horiz-adv-x="1710" d="M53 0l443 592l-416 452h127l598 -665v665h100v-665l598 665h127l-418 -452l445 -592h-123l-385 520l-244 -264v-256h-100v256l-244 266l-385 -522h-123z" />
<glyph unicode="&#x437;" d="M92 135l62 82q168 -143 360 -143q111 0 198 62.5t87 152.5q0 92 -78 146t-213 54h-143v91h145q113 0 186.5 55t73.5 149q0 82 -71.5 133.5t-180.5 51.5q-190 0 -325 -107l-60 80q164 121 387 121q164 0 262.5 -78t98.5 -201q0 -172 -168 -241q195 -68 194 -256 q0 -127 -109.5 -217t-279.5 -90q-236 0 -426 155z" />
<glyph unicode="&#x438;" horiz-adv-x="1290" d="M190 0v1044h101v-911l708 911h101v-1044h-101v911l-708 -911h-101z" />
<glyph unicode="&#x439;" horiz-adv-x="1290" d="M190 0v1044h101v-911l708 911h101v-1044h-101v911l-708 -911h-101zM369 1450l84 18q39 -150 192.5 -149.5t192.5 149.5l84 -18q-18 -102 -94 -169t-182.5 -67t-182.5 67t-94 169z" />
<glyph unicode="&#x43a;" horiz-adv-x="1138" d="M190 0v1044h101v-669l647 669h133l-457 -462l471 -582h-127l-413 510l-254 -256v-254h-101z" />
<glyph unicode="&#x43b;" horiz-adv-x="1249" d="M8 0l19 92q51 -14 79 -14q41 0 67 9t56.5 38t49 90t36 159.5t25.5 252t8 362.5v55h711v-1044h-101v954h-514v-28q0 -254 -16 -430.5t-41 -275.5t-70 -153.5t-86.5 -68.5t-107.5 -14q-57 0 -115 16z" />
<glyph unicode="&#x43c;" horiz-adv-x="1413" d="M190 0v1044h91l426 -600l426 600h90v-1044h-101v870l-420 -577l-415 577v-870h-97z" />
<glyph unicode="&#x43d;" horiz-adv-x="1275" d="M190 0v1044h101v-464h694v464h100v-1044h-100v489h-694v-489h-101z" />
<glyph unicode="&#x43e;" horiz-adv-x="1310" d="M119 522q0 223 154.5 385t384 162t382 -160.5t152.5 -386.5q0 -223 -154.5 -385t-384 -162t-382 161t-152.5 386zM227 522.5q0 -188.5 125 -320.5t305 -132q174 0 300 133t126 319q0 188 -126 320.5t-304 132.5q-176 0 -301 -132t-125 -320.5z" />
<glyph unicode="&#x43f;" horiz-adv-x="1249" d="M190 0v1044h869v-1044h-101v954h-667v-954h-101z" />
<glyph unicode="&#x440;" horiz-adv-x="1351" d="M190 -328v1372h101v-233q170 258 430 258q201 0 354.5 -150.5t153.5 -396.5q0 -244 -153.5 -395.5t-354.5 -151.5q-266 0 -430 250v-553h-101zM285 520q0 -195 128 -321.5t298 -126.5q176 0 292.5 121.5t116.5 328.5q0 201 -119.5 326t-289.5 125t-298 -128t-128 -325z " />
<glyph unicode="&#x441;" horiz-adv-x="1169" d="M119 522q0 225 154.5 386t377.5 161q244 0 416 -195l-70 -71q-168 172 -348 172q-174 0 -298 -133t-124 -320q0 -188 125 -320t305 -132q186 0 347 178l73 -66q-182 -207 -426 -207q-225 0 -378.5 160t-153.5 387z" />
<glyph unicode="&#x442;" horiz-adv-x="1005" d="M61 954v90h883v-90h-391v-954h-100v954h-392z" />
<glyph unicode="&#x443;" horiz-adv-x="1204" d="M80 1044h117l434 -933l377 933h110l-452 -1081q-68 -160 -151 -228.5t-198 -68.5q-104 0 -206 45l34 88q80 -39 179 -39q82 0 141 55.5t117 190.5z" />
<glyph unicode="&#x444;" horiz-adv-x="1751" d="M123 526q0 252 116.5 397.5t309.5 145.5q143 0 276 -123v488h101v-488q63 59 125.5 91t150.5 32q193 0 309.5 -146.5t116.5 -400.5q0 -252 -117.5 -399.5t-308.5 -147.5q-94 0 -151.5 29t-124.5 90v-422h-101v422q-137 -119 -276 -119q-193 0 -309.5 148.5t-116.5 402.5z M231 518q0 -446 328 -446q152 0 266 125v651q-115 125 -266 125q-162 0 -245 -121t-83 -334zM926 197q114 -125 266 -125q328 0 328 450q0 211 -83 331t-245 120q-152 0 -266 -125v-651z" />
<glyph unicode="&#x445;" horiz-adv-x="1167" d="M92 0l428 532l-411 512h124l353 -442l352 442h121l-412 -509l428 -535h-125l-368 465l-369 -465h-121z" />
<glyph unicode="&#x446;" horiz-adv-x="1288" d="M190 0v1044h101v-954h667v954h101v-954h168l-21 -385h-82v295h-934z" />
<glyph unicode="&#x447;" horiz-adv-x="1146" d="M141 653v391h101v-393q0 -96 62.5 -152.5t172.5 -56.5q94 0 199.5 32t179.5 83v487h100v-1044h-100v457q-72 -41 -176.5 -74t-198.5 -33q-158 0 -249 78t-91 225z" />
<glyph unicode="&#x448;" horiz-adv-x="1837" d="M190 0v1044h101v-954h577v954h101v-954h577v954h101v-1044h-1457z" />
<glyph unicode="&#x449;" horiz-adv-x="1875" d="M190 0v1044h101v-954h577v954h101v-954h577v954h101v-954h168l-21 -385h-82v295h-1522z" />
<glyph unicode="&#x44a;" horiz-adv-x="1267" d="M41 954v90h434v-401h311q174 0 287 -77t113 -230q0 -152 -104.5 -244t-276.5 -92h-430v954h-334zM475 90h313q133 0 211 63.5t78 178.5q0 104 -79.5 162.5t-217.5 58.5h-305v-463z" />
<glyph unicode="&#x44b;" horiz-adv-x="1501" d="M190 0v1044h101v-401h311q174 0 286.5 -77t112.5 -230q0 -152 -104 -244t-276 -92h-431zM291 90h313q133 0 211 63.5t78 178.5q0 104 -80 162.5t-217 58.5h-305v-463zM1210 0v1044h101v-1044h-101z" />
<glyph unicode="&#x44c;" horiz-adv-x="1083" d="M190 0v1044h101v-401h311q174 0 286.5 -77t112.5 -230q0 -152 -104 -244t-276 -92h-431zM291 90h313q133 0 211 63.5t78 178.5q0 104 -80 162.5t-217 58.5h-305v-463z" />
<glyph unicode="&#x44d;" horiz-adv-x="1169" d="M92 182l74 64q158 -176 346 -176q170 0 293 119.5t135 299.5h-549v91h547q-18 168 -139 281.5t-279 113.5q-186 0 -348 -172l-68 69q88 92 184.5 144.5t229.5 52.5q227 0 380 -162t153 -389q0 -221 -155 -382t-378 -161q-256 0 -426 207z" />
<glyph unicode="&#x44e;" horiz-adv-x="1679" d="M190 0v1044h101v-473h258q16 211 154.5 354.5t353.5 143.5q225 0 364.5 -158.5t139.5 -388.5q0 -227 -140.5 -387t-367.5 -160q-217 0 -353.5 143.5t-150.5 360.5h-258v-479h-101zM657 522q0 -193 111 -322.5t289 -129.5q180 0 287.5 129t107.5 323q0 193 -110.5 323 t-288.5 130q-180 0 -288 -129t-108 -324z" />
<glyph unicode="&#x44f;" horiz-adv-x="1175" d="M106 0l330 416q-131 25 -216 108.5t-85 208.5q0 139 102.5 225t280.5 86h467v-1044h-100v401h-344l-312 -401h-123zM244 727q0 -106 82 -170.5t211 -64.5h348v462h-353q-135 0 -211.5 -61.5t-76.5 -165.5z" />
<glyph unicode="&#x451;" horiz-adv-x="1196" d="M119 524q0 229 142 387t353 158q215 0 347.5 -155.5t132.5 -391.5q0 -25 -2 -41h-867q14 -188 132 -299.5t278 -111.5q205 0 358 163l70 -61q-182 -197 -432 -197q-211 0 -361.5 154t-150.5 395zM225 571h760q-12 172 -108.5 289t-266.5 117q-154 0 -262.5 -116 t-122.5 -290zM371 1219v163h141v-163h-141zM705 1219v163h141v-163h-141z" />
<glyph unicode="&#x452;" horiz-adv-x="1255" d="M20 1188v92h170v215h101v-215h469v-92h-469v-338q125 219 377 219q195 0 306 -120t111 -310v-233q0 -190 -111 -310.5t-306 -120.5q-104 0 -207 45l35 89q80 -39 178 -39q135 0 223 97t88 257v197q0 164 -88 260t-243.5 96t-259 -105.5t-103.5 -267.5v-604h-101v1188 h-170z" />
<glyph unicode="&#x453;" horiz-adv-x="942" d="M190 0v1044h691v-90h-590v-954h-101zM422 1219l180 272l125 -61l-219 -211h-86z" />
<glyph unicode="&#x454;" horiz-adv-x="1169" d="M119 518q0 227 152.5 389t379.5 162q133 0 229.5 -52t184.5 -145l-68 -69q-162 172 -348 172q-158 0 -278.5 -113.5t-141.5 -281.5h549v-91h-551q14 -180 136 -299.5t294 -119.5q188 0 347 176l73 -64q-170 -207 -426 -207q-223 0 -377.5 161t-154.5 382z" />
<glyph unicode="&#x455;" horiz-adv-x="1017" d="M100 131l60 80q178 -137 375 -137q109 0 180 55t71 147q0 84 -70.5 127t-205.5 82q-72 20 -104.5 30.5t-92 37.5t-87 53.5t-51 70.5t-23.5 99q0 127 96 208t248 81q199 0 370 -115l-53 -84q-158 104 -321 105q-106 0 -172 -52.5t-66 -134.5q0 -33 17.5 -61.5t41 -47 t67.5 -38t75.5 -29.5t89.5 -26q78 -23 127 -41.5t105.5 -53t84 -85t27.5 -117.5q0 -137 -103.5 -221t-257.5 -84q-113 0 -228.5 41.5t-199.5 109.5z" />
<glyph unicode="&#x456;" horiz-adv-x="509" d="M193 1317v137h124v-137h-124zM205 0v1044h100v-1044h-100z" />
<glyph unicode="&#x457;" horiz-adv-x="509" d="M18 1219v163h142v-163h-142zM205 0v1044h100v-1044h-100zM352 1219v163h142v-163h-142z" />
<glyph unicode="&#x458;" horiz-adv-x="509" d="M-2 -238q37 -6 82 -6q57 0 91 37t34 109v1142h100v-1136q0 -119 -59.5 -180.5t-163.5 -61.5q-43 0 -84 8v88zM193 1317v137h124v-137h-124z" />
<glyph unicode="&#x459;" horiz-adv-x="1851" d="M8 0l19 92q51 -14 79 -14q41 0 67 9t56.5 38t49 90t36 159.5t25.5 252t8 362.5v55h711v-401h311q174 0 286.5 -77t112.5 -230q0 -152 -104 -244t-276 -92h-431v954h-514v-28q0 -254 -16 -430.5t-41 -275.5t-70 -153.5t-86.5 -68.5t-107.5 -14q-57 0 -115 16zM1059 90h313 q133 0 211 63.5t78 178.5q0 104 -80 162.5t-217 58.5h-305v-463z" />
<glyph unicode="&#x45a;" horiz-adv-x="1878" d="M190 0v1044h101v-430h694v430h100v-430h312q178 0 288.5 -70.5t110.5 -221.5q0 -150 -103.5 -236t-277.5 -86h-430v524h-694v-524h-101zM1085 90h314q135 0 212 57.5t77 169.5q0 102 -78 154.5t-219 52.5h-306v-434z" />
<glyph unicode="&#x45b;" horiz-adv-x="1255" d="M20 1188v92h170v215h101v-215h469v-92h-469v-338q125 219 377 219q195 0 306 -120t111 -310v-639h-100v621q0 164 -88 260t-243.5 96t-259 -105.5t-103.5 -267.5v-604h-101v1188h-170z" />
<glyph unicode="&#x45c;" horiz-adv-x="1138" d="M190 0v1044h101v-669l647 669h133l-457 -462l471 -582h-127l-413 510l-254 -256v-254h-101zM457 1219l180 272l125 -61l-219 -211h-86z" />
<glyph unicode="&#x45e;" horiz-adv-x="1204" d="M80 1044h117l434 -933l377 933h110l-452 -1081q-68 -160 -151 -228.5t-198 -68.5q-104 0 -206 45l34 88q80 -39 179 -39q82 0 141 55.5t117 190.5zM354 1450l84 18q39 -150 192.5 -149.5t192.5 149.5l84 -18q-18 -102 -94 -169t-182.5 -67t-182 67t-94.5 169z" />
<glyph unicode="&#x45f;" horiz-adv-x="1261" d="M190 0v1044h101v-952h667v952h101v-1044h-375v-295h-102v295h-392z" />
<glyph unicode="&#x490;" horiz-adv-x="1208" d="M213 0v1434h784v327h90l21 -426h-789v-1335h-106z" />
<glyph unicode="&#x491;" horiz-adv-x="942" d="M190 0v1044h588v295h82l21 -385h-590v-954h-101z" />
<glyph unicode="&#x2000;" horiz-adv-x="919" />
<glyph unicode="&#x2001;" horiz-adv-x="1839" />
<glyph unicode="&#x2002;" horiz-adv-x="919" />
<glyph unicode="&#x2003;" horiz-adv-x="1839" />
<glyph unicode="&#x2004;" horiz-adv-x="613" />
<glyph unicode="&#x2005;" horiz-adv-x="459" />
<glyph unicode="&#x2006;" horiz-adv-x="306" />
<glyph unicode="&#x2007;" horiz-adv-x="306" />
<glyph unicode="&#x2008;" horiz-adv-x="229" />
<glyph unicode="&#x2009;" horiz-adv-x="367" />
<glyph unicode="&#x200a;" horiz-adv-x="102" />
<glyph unicode="&#x2010;" horiz-adv-x="835" d="M143 551v115h549v-115h-549z" />
<glyph unicode="&#x2011;" horiz-adv-x="835" d="M143 551v115h549v-115h-549z" />
<glyph unicode="&#x2012;" horiz-adv-x="835" d="M143 551v115h549v-115h-549z" />
<glyph unicode="&#x2013;" horiz-adv-x="1081" d="M143 555v107h795v-107h-795z" />
<glyph unicode="&#x2014;" horiz-adv-x="1839" d="M143 555v107h1553v-107h-1553z" />
<glyph unicode="&#x2018;" horiz-adv-x="471" d="M158 1051v151q0 96 39 151.5t131 90.5l24 -51q-115 -57 -114 -150v-18h55v-174h-135z" />
<glyph unicode="&#x2019;" horiz-adv-x="471" d="M119 1092q115 57 114 149v19h-55v174h135v-152q0 -96 -39 -151.5t-131 -90.5z" />
<glyph unicode="&#x201a;" horiz-adv-x="471" d="M109 -168q115 57 114 150v18h-55v174h135v-151q0 -96 -39 -151.5t-131 -90.5z" />
<glyph unicode="&#x201c;" horiz-adv-x="839" d="M158 1051v151q0 96 39 151.5t131 90.5l24 -51q-115 -57 -114 -150v-18h55v-174h-135zM526 1051v151q0 96 39 151.5t131 90.5l25 -51q-115 -57 -115 -150v-18h56v-174h-136z" />
<glyph unicode="&#x201d;" horiz-adv-x="839" d="M119 1092q115 57 114 149v19h-55v174h135v-152q0 -96 -39 -151.5t-131 -90.5zM487 1092q115 57 115 149v19h-55v174h135v-152q0 -96 -39 -151.5t-131 -90.5z" />
<glyph unicode="&#x201e;" horiz-adv-x="839" d="M109 -168q115 57 114 150v18h-55v174h135v-151q0 -96 -39 -151.5t-131 -90.5zM477 -168q115 57 115 150v18h-55v174h135v-151q0 -96 -39 -151.5t-131 -90.5z" />
<glyph unicode="&#x2026;" horiz-adv-x="1392" d="M168 0v170h131v-170h-131zM631 0v170h131v-170h-131zM1094 0v170h131v-170h-131z" />
<glyph unicode="&#x202f;" horiz-adv-x="367" />
<glyph unicode="&#x2039;" horiz-adv-x="636" d="M104 514v16l328 428l76 -49l-281 -385l281 -389l-76 -49z" />
<glyph unicode="&#x203a;" horiz-adv-x="636" d="M129 135l281 385l-281 389l76 49l327 -428v-16l-327 -428z" />
<glyph unicode="&#x205f;" horiz-adv-x="459" />
<glyph unicode="&#x20ac;" horiz-adv-x="1474" d="M121 502v98h170q-6 55 -6 117q0 70 10 135h-174v98h192q57 225 206 366.5t343 141.5q301 0 492 -287l-82 -55q-88 129 -181.5 188.5t-232.5 59.5q-152 0 -270.5 -114.5t-169.5 -299.5h581v-98h-600q-10 -61 -10 -135q0 -57 6 -117h604v-98h-585q49 -195 174 -313.5 t295 -118.5q227 0 397 262l78 -51q-198 -306 -481 -306q-209 0 -364 144.5t-208 382.5h-184z" />
<glyph unicode="&#x2122;" horiz-adv-x="1413" d="M53 1364v70h486v-70h-207v-561h-72v561h-207zM682 803v631h76l246 -375l245 375h74v-631h-72v504l-243 -365h-11l-243 365v-504h-72z" />
<glyph unicode="&#x25fc;" horiz-adv-x="1044" d="M0 0v1044h1044v-1044h-1044z" />
</font>
</defs>
</svg>
